# xmcd
#
# Track frame offsets:
#	150
#	12327
#	26815
#	49585
#	63980
#	81415
#	100125
#	114477
#	130715
#	145240
#	159810
#	177857
#	194582
#	211020
#
# Disc length: 3037
#
# Revision: 1
# Processed by: cddbd v1.5.1PL0 Copyright (c) Steve Scherf et al.
# Submitted via: VisiTrax 2.9.3.171 - For more info visit www.synapsa.com
# Normalized: r0:DSETVAR1
#
DISCID=b70bdb0e
DTITLE=Various Artist - Mr Music Country 4-01
DYEAR=1900
DGENRE=
TTITLE0=Troy Cook Jr - Too Many Horses Left To Ride
TTITLE1=Brooks and Dunn - Honky Tonk Truth
TTITLE2=Clay Walker - The Chain Of Love
TTITLE3=Red Meat with Jill Olson - This Property's Condemned
TTITLE4=Shane Worley - Jones Clones
TTITLE5=Diamond Rio with Chely Wright - I'm Trying
TTITLE6=Glynn Martin - I Know My Day Would Come
TTITLE7=Debora Avans - Mama Did Raise One Fool
TTITLE8=Jim Lauderdale - As If We Would Never Love Again
TTITLE9=Pam Tillis - All The Good Ones Are Gone
TTITLE10=Arkey Blue - It's Time That You Are Replaced
TTITLE11=The Warren Brothers - Do-Ya
TTITLE12=The Roger Springer Band - Daddy Never Had a Chance In Hell
TTITLE13=Peggy Rains - Songs About Texas
EXTD=
EXTT0=
EXTT1=
EXTT2=
EXTT3=
EXTT4=
EXTT5=
EXTT6=
EXTT7=
EXTT8=
EXTT9=
EXTT10=
EXTT11=
EXTT12=
EXTT13=
PLAYORDER=
